<svg xmlns="http://www.w3.org/2000/svg" xmlns:xlink="http://www.w3.org/1999/xlink" viewBox="0 0 349.29 74.47">
  <defs>
    <style>
      .cls-1 {
        fill: url(#New_Gradient_Swatch_1);
      }

      .cls-2 {
        fill: url(#New_Gradient_Swatch_1-2);
      }

      .cls-3 {
        fill: url(#New_Gradient_Swatch_1-3);
      }

      .cls-4 {
        fill: url(#New_Gradient_Swatch_1-4);
      }

      .cls-5 {
        fill: url(#New_Gradient_Swatch_1-5);
      }

      .cls-6 {
        fill: url(#New_Gradient_Swatch_1-6);
      }

      .cls-7 {
        fill: url(#New_Gradient_Swatch_1-7);
      }

      .cls-8 {
        fill: url(#New_Gradient_Swatch_1-8);
      }

      .cls-9 {
        font-size: 64.03px;
        fill: #fff;
        font-family: Montserrat-ExtraBold, Montserrat;
        font-weight: 800;
      }

      .cls-10 {
        letter-spacing: 0.03em;
      }
    </style>
    <linearGradient id="New_Gradient_Swatch_1" data-name="New Gradient Swatch 1" x1="40.85" y1="-5.47" x2="9.87" y2="48.15" gradientUnits="userSpaceOnUse">
      <stop offset="0" stop-color="#8b5cf6"/>
      <stop offset="0.23" stop-color="#8758f1"/>
      <stop offset="0.5" stop-color="#7d4be3"/>
      <stop offset="0.78" stop-color="#6c36cd"/>
      <stop offset="1" stop-color="#5b21b6"/>
    </linearGradient>
    <linearGradient id="New_Gradient_Swatch_1-2" x1="31.29" y1="-10.99" x2="0.32" y2="42.62" xlink:href="#New_Gradient_Swatch_1"/>
    <linearGradient id="New_Gradient_Swatch_1-3" x1="28.55" y1="-12.57" x2="-2.43" y2="41.04" xlink:href="#New_Gradient_Swatch_1"/>
    <linearGradient id="New_Gradient_Swatch_1-4" x1="25.25" y1="-14.5" x2="-5.75" y2="39.16" xlink:href="#New_Gradient_Swatch_1"/>
    <linearGradient id="New_Gradient_Swatch_1-5" x1="36.44" y1="-8.02" x2="5.46" y2="45.6" xlink:href="#New_Gradient_Swatch_1"/>
    <linearGradient id="New_Gradient_Swatch_1-6" x1="24.2" y1="-15.09" x2="-6.78" y2="38.53" xlink:href="#New_Gradient_Swatch_1"/>
    <linearGradient id="New_Gradient_Swatch_1-7" x1="20.75" y1="-17.08" x2="-10.23" y2="36.54" xlink:href="#New_Gradient_Swatch_1"/>
    <linearGradient id="New_Gradient_Swatch_1-8" x1="53.63" y1="1.91" x2="22.65" y2="55.53" xlink:href="#New_Gradient_Swatch_1"/>
  </defs>
  <g id="Layer_2" data-name="Layer 2">
    <g id="Layer_1-2" data-name="Layer 1">
      <g>
        <g>
          <path class="cls-1" d="M32.19,19.18a5.8,5.8,0,0,0-1.18,0,2.91,2.91,0,0,1-2.78-1.32L25.49,13.6a1.67,1.67,0,0,1,0-1.75,4.26,4.26,0,0,0,.57-2.77,4.58,4.58,0,0,0-3.65-3.66,4.28,4.28,0,0,0-1.64,8.38,4.07,4.07,0,0,0,1.54.11,1.68,1.68,0,0,1,1.6.78l2.71,4.22a3,3,0,0,1,0,3.12,5.78,5.78,0,0,0-.83,3,6.08,6.08,0,0,0,.12,1.22,3,3,0,0,1-1,3l-4,3.21a1.69,1.69,0,0,1-1.78.2,4.23,4.23,0,0,0-2.3-.36,4.56,4.56,0,0,0-3.75,3.68,4.29,4.29,0,1,0,8.5,1.1,4.35,4.35,0,0,0-.06-1.4,1.73,1.73,0,0,1,.59-1.72l4-3.21a3,3,0,0,1,3.1-.35,5.8,5.8,0,0,0,2.47.55,5.88,5.88,0,0,0,5.87-6.18A6.16,6.16,0,0,0,32.19,19.18ZM21.79,12a2.34,2.34,0,1,1,2.34-2.34A2.35,2.35,0,0,1,21.79,12ZM17.25,39.22a2.61,2.61,0,1,1,2.62-2.61A2.61,2.61,0,0,1,17.25,39.22ZM31.63,28.8a3.63,3.63,0,1,1,3.62-3.63A3.64,3.64,0,0,1,31.63,28.8Z"/>
          <path class="cls-2" d="M18.9,17.92a4.59,4.59,0,0,0-.91,0,2.24,2.24,0,0,1-2.15-1l-2.11-3.29a1.25,1.25,0,0,1,0-1.35,3.4,3.4,0,0,0,.44-2.15A3.53,3.53,0,0,0,11.34,7.3a3.3,3.3,0,0,0-1.26,6.47,3,3,0,0,0,1.19.08,1.28,1.28,0,0,1,1.23.61l2.09,3.26a2.28,2.28,0,0,1,0,2.41A4.4,4.4,0,0,0,14,22.44a4.17,4.17,0,0,0,.1.94,2.32,2.32,0,0,1-.79,2.29l-3.11,2.48a1.31,1.31,0,0,1-1.37.15A3.41,3.41,0,0,0,7,28a3.53,3.53,0,0,0-2.89,2.85,3.31,3.31,0,1,0,6.51-.24,1.34,1.34,0,0,1,.46-1.33l3.11-2.48a2.27,2.27,0,0,1,2.39-.26A4.54,4.54,0,0,0,23,22.21,4.76,4.76,0,0,0,18.9,17.92Zm-8.06-5.61a1.81,1.81,0,1,1,1.81-1.81A1.81,1.81,0,0,1,10.84,12.31ZM7.39,33.15A1.81,1.81,0,1,1,9.2,31.34,1.81,1.81,0,0,1,7.39,33.15Zm11-8.4a2.35,2.35,0,1,1,2.35-2.34A2.34,2.34,0,0,1,18.43,24.75Z"/>
          <path class="cls-3" d="M9.19,23.28a2.35,2.35,0,1,0-2.34-2.34A2.35,2.35,0,0,0,9.19,23.28Z"/>
          <path class="cls-4" d="M15.53,0a2.35,2.35,0,1,0,2.34,2.35A2.35,2.35,0,0,0,15.53,0Zm0,3.56a1.21,1.21,0,1,1,1.21-1.21A1.21,1.21,0,0,1,15.53,3.56Z"/>
          <path class="cls-5" d="M8.45,38.07a2.35,2.35,0,1,0,2.34,2.35A2.35,2.35,0,0,0,8.45,38.07Z"/>
          <path class="cls-6" d="M1.75,22A1.76,1.76,0,1,0,3.5,23.76,1.75,1.75,0,0,0,1.75,22Z"/>
          <path class="cls-7" d="M2.67,12.46a1.75,1.75,0,1,0,1.75,1.75A1.75,1.75,0,0,0,2.67,12.46Z"/>
          <path class="cls-8" d="M56.46,33.28c0-.85-5.05-8.09-5.05-8.09a16,16,0,0,0,.25-2.84c0-.4,0-.81,0-1.24l0-.38c-.05-.57-.12-1.16-.22-1.77,0-.14,0-.28-.08-.41l0-.09-.12-.6,0-.1c0-.14-.06-.27-.1-.41L51,17.12l-.12-.42-.18-.58a18.6,18.6,0,0,0-.91-2.2c-.1-.21-.21-.42-.33-.62a15.74,15.74,0,0,0-2.74-3.64c-.21-.21-.43-.42-.67-.62s-.55-.47-.84-.69l-.64-.46-.34-.24-.25-.16-.21-.13-.38-.22-.14-.08c-.16-.09-.32-.18-.49-.26l-.48-.25c-.42-.2-.86-.39-1.31-.57l-.26-.1c-3.55-1.34-8.18-2-14.2-1.39h0a7.13,7.13,0,0,1,.8.85l.09.11c.14.18.27.37.39.56a6.07,6.07,0,0,1,.46.83,2.56,2.56,0,0,1,.11.24c.05.12.1.23.14.35a6.38,6.38,0,0,1,.31,1.29,5.94,5.94,0,0,1,.06,1,6.91,6.91,0,0,1-.68,2.93h0l2.38,3.71s0,0,0,.05a.16.16,0,0,0,.09,0,8.68,8.68,0,0,1,1-.06c.24,0,.49,0,.73,0a8.8,8.8,0,0,1,6.37,3.82l.07.11.12.18.08.13.11.18.07.12a2.26,2.26,0,0,1,.11.22.41.41,0,0,1,0,.09,2.89,2.89,0,0,1,.15.31.93.93,0,0,0,.05.1l.09.23a.61.61,0,0,1,0,.12,1.8,1.8,0,0,1,.08.21s0,.09,0,.13,0,.15.07.23a.42.42,0,0,0,0,.1l.09.34s0,0,0,.07a2.29,2.29,0,0,1,.07.28.43.43,0,0,0,0,.11c0,.08,0,.16,0,.24s0,.08,0,.13l0,.24s0,.07,0,.11l0,.36c0,.15,0,.29,0,.44a8.56,8.56,0,0,1-.53,3c-.05.14-.11.27-.16.4a8.65,8.65,0,0,1-7.93,5.22,8.54,8.54,0,0,1-3.63-.8l-.13,0a.17.17,0,0,0-.09,0h0l-3.54,2.83h0a6,6,0,0,1,0,.85,8.27,8.27,0,0,1-.05.86,7,7,0,0,1-7,6.14,6.63,6.63,0,0,1-1-.07h0l.41.46c.28.32.58.63.88.94s.61.6.92.88l.44.37c.31.26.62.5.94.73l-.24,2.41-.83,8.63h20s.34-6.79,3.73-7.32,7.2.27,8.72-.7c1.68-1.18,1.23-3.08.31-4.88-.29-.57-.5-2,.46-2.23s1.83-1.77-.21-2.6c1.45-.22,2.06-1.16,1.81-1.83s-1.17-1.11-.69-2.23S56.45,35,56.46,33.28Z"/>
        </g>
        <text class="cls-9" transform="translate(63.2 57.31)">Klona<tspan class="cls-10" x="195.61" y="0">.</tspan><tspan x="215.72" y="0">Ai</tspan></text>
      </g>
    </g>
  </g>
</svg>
