<svg xmlns="http://www.w3.org/2000/svg" xmlns:xlink="http://www.w3.org/1999/xlink" viewBox="0 0 349.29 74.47">
  <defs>
    <style>
      .cls-1 {
        fill: url(#New_Gradient_Swatch_1);
      }

      .cls-2 {
        fill: url(#New_Gradient_Swatch_1-2);
      }

      .cls-3 {
        fill: url(#New_Gradient_Swatch_1-3);
      }

      .cls-4 {
        fill: url(#New_Gradient_Swatch_1-4);
      }

      .cls-5 {
        fill: url(#New_Gradient_Swatch_1-5);
      }

      .cls-6 {
        fill: url(#New_Gradient_Swatch_1-6);
      }

      .cls-7 {
        fill: url(#New_Gradient_Swatch_1-7);
      }

      .cls-8 {
        fill: url(#New_Gradient_Swatch_1-8);
      }

      .cls-9 {
        font-size: 64.03px;
        fill: #fff;
        font-family: Montserrat-ExtraBold, Montserrat;
        font-weight: 800;
      }

      .cls-10 {
        letter-spacing: 0.03em;
      }
    </style>
    <linearGradient id="New_Gradient_Swatch_1" data-name="New Gradient Swatch 1" x1="40.85" y1="-5.47" x2="9.87" y2="48.14" gradientUnits="userSpaceOnUse">
      <stop offset="0" stop-color="#8b5cf6"/>
      <stop offset="0.23" stop-color="#8758f1"/>
      <stop offset="0.5" stop-color="#7d4be3"/>
      <stop offset="0.78" stop-color="#6c36cd"/>
      <stop offset="1" stop-color="#5b21b6"/>
    </linearGradient>
    <linearGradient id="New_Gradient_Swatch_1-2" x1="31.29" y1="-10.99" x2="0.31" y2="42.62" xlink:href="#New_Gradient_Swatch_1"/>
    <linearGradient id="New_Gradient_Swatch_1-3" x1="28.55" y1="-12.58" x2="-2.43" y2="41.04" xlink:href="#New_Gradient_Swatch_1"/>
    <linearGradient id="New_Gradient_Swatch_1-4" x1="25.25" y1="-14.49" x2="-5.73" y2="39.13" xlink:href="#New_Gradient_Swatch_1"/>
    <linearGradient id="New_Gradient_Swatch_1-5" x1="36.44" y1="-8.02" x2="5.46" y2="45.6" xlink:href="#New_Gradient_Swatch_1"/>
    <linearGradient id="New_Gradient_Swatch_1-6" x1="24.2" y1="-15.09" x2="-6.78" y2="38.52" xlink:href="#New_Gradient_Swatch_1"/>
    <linearGradient id="New_Gradient_Swatch_1-7" x1="20.75" y1="-17.08" x2="-10.23" y2="36.53" xlink:href="#New_Gradient_Swatch_1"/>
    <linearGradient id="New_Gradient_Swatch_1-8" x1="53.63" y1="1.91" x2="22.65" y2="55.53" xlink:href="#New_Gradient_Swatch_1"/>
  </defs>
  <g id="Layer_2" data-name="Layer 2">
    <g id="Layer_1-2" data-name="Layer 1">
      <g>
        <g>
          <path class="cls-1" d="M17.79,40.76A4.32,4.32,0,0,0,21.55,37a4.41,4.41,0,0,0-.06-1.41,1.71,1.71,0,0,1,.59-1.71l4-3.22a3,3,0,0,1,3.1-.34,5.8,5.8,0,0,0,2.47.55,5.88,5.88,0,0,0,5.87-6.18,6.17,6.17,0,0,0-5.37-5.56,6.61,6.61,0,0,0-1.18,0,2.91,2.91,0,0,1-2.78-1.32L25.48,13.6a1.67,1.67,0,0,1,0-1.75,4.24,4.24,0,0,0,.57-2.78A4.6,4.6,0,0,0,22.4,5.41a4.28,4.28,0,0,0-1.64,8.39,4.08,4.08,0,0,0,1.54.1,1.7,1.7,0,0,1,1.6.79l2.71,4.22a3,3,0,0,1,0,3.12,5.78,5.78,0,0,0-.83,3,5.34,5.34,0,0,0,.13,1.21,3,3,0,0,1-1,3l-4,3.22a1.71,1.71,0,0,1-1.78.2,4.31,4.31,0,0,0-2.3-.37,4.56,4.56,0,0,0-3.74,3.69A4.28,4.28,0,0,0,17.79,40.76Z"/>
          <path class="cls-2" d="M16.59,26.56A4.54,4.54,0,0,0,23,22.21a4.75,4.75,0,0,0-4.14-4.29,4.59,4.59,0,0,0-.91,0,2.26,2.26,0,0,1-2.15-1l-2.11-3.3a1.27,1.27,0,0,1,0-1.35,3.29,3.29,0,0,0,.44-2.14,3.55,3.55,0,0,0-2.82-2.83,3.31,3.31,0,0,0-1.27,6.48,3.47,3.47,0,0,0,1.19.08,1.3,1.3,0,0,1,1.24.61l2.09,3.25a2.28,2.28,0,0,1,0,2.41A4.56,4.56,0,0,0,14,22.44a4.92,4.92,0,0,0,.1.94,2.27,2.27,0,0,1-.79,2.28l-3.11,2.48a1.31,1.31,0,0,1-1.37.16A3.31,3.31,0,0,0,7,28a3.55,3.55,0,0,0-2.89,2.85,3.31,3.31,0,1,0,6.56.85,3,3,0,0,0,0-1.08,1.34,1.34,0,0,1,.46-1.33l3.11-2.48A2.28,2.28,0,0,1,16.59,26.56Z"/>
          <path class="cls-3" d="M9.19,23.28a2.35,2.35,0,1,0-2.34-2.35A2.35,2.35,0,0,0,9.19,23.28Z"/>
          <circle class="cls-4" cx="15.52" cy="2.34" r="2.34"/>
          <path class="cls-5" d="M8.45,38.07a2.35,2.35,0,1,0,2.34,2.34A2.34,2.34,0,0,0,8.45,38.07Z"/>
          <path class="cls-6" d="M1.75,22A1.75,1.75,0,1,0,3.5,23.75,1.75,1.75,0,0,0,1.75,22Z"/>
          <path class="cls-7" d="M2.67,12.45a1.76,1.76,0,1,0,1.75,1.76A1.75,1.75,0,0,0,2.67,12.45Z"/>
          <path class="cls-8" d="M56.46,33.27c0-.85-5.05-8.08-5.05-8.08a16,16,0,0,0,.25-2.84c0-.4,0-.81,0-1.24l0-.38c-.05-.57-.12-1.17-.22-1.78,0-.13,0-.27-.08-.41l0-.09-.12-.6,0-.09c0-.14-.06-.28-.1-.41L51,17.11l-.12-.41-.18-.58a17.31,17.31,0,0,0-.91-2.2q-.15-.31-.33-.63a15.69,15.69,0,0,0-2.74-3.63c-.21-.22-.43-.42-.67-.63l-.84-.69-.64-.46-.34-.23-.25-.16-.21-.13-.38-.23-.14-.07-.49-.27-.48-.24c-.42-.2-.86-.39-1.31-.57l-.26-.1c-3.55-1.35-8.18-2-14.2-1.39h0a7.13,7.13,0,0,1,.8.85l.09.11c.14.18.27.36.39.55a7.54,7.54,0,0,1,.46.83c0,.09.08.17.11.25s.1.23.14.35a6.45,6.45,0,0,1,.31,1.28,6,6,0,0,1,.06,1,7,7,0,0,1-.68,2.94h0l2.38,3.7a.08.08,0,0,0,0,.05.18.18,0,0,0,.09,0,8.68,8.68,0,0,1,1-.06c.24,0,.49,0,.73,0a8.76,8.76,0,0,1,6.37,3.82l.07.11.12.18.08.12.11.19.07.12a2.12,2.12,0,0,1,.11.21.93.93,0,0,1,0,.1,1.77,1.77,0,0,1,.15.31s0,.07.05.1l.09.22a.69.69,0,0,1,0,.13,1.8,1.8,0,0,1,.08.21l0,.12c0,.08,0,.16.07.24a.42.42,0,0,0,0,.1l.09.34s0,0,0,.06,0,.19.07.28a.5.5,0,0,0,0,.12c0,.08,0,.16,0,.24s0,.08,0,.12l0,.25s0,.07,0,.11l0,.35c0,.15,0,.3,0,.45a8.6,8.6,0,0,1-.53,3c-.05.14-.11.27-.16.4A8.54,8.54,0,0,1,37.92,31a8.66,8.66,0,0,1-6.24,2.68,8.54,8.54,0,0,1-3.63-.8.26.26,0,0,0-.13,0,.17.17,0,0,0-.09,0h0l-3.54,2.83h0a6,6,0,0,1,0,.85,8.08,8.08,0,0,1-.05.85,7.08,7.08,0,0,1-6.17,6.1,7.16,7.16,0,0,1-.8.05,6.63,6.63,0,0,1-1-.08h0l.41.47c.28.32.58.63.88.93s.61.6.92.88l.44.38c.31.26.62.5.94.72l-.24,2.41-.83,8.64h20s.34-6.8,3.73-7.33,7.2.28,8.72-.69c1.68-1.18,1.23-3.09.31-4.88-.29-.57-.5-2,.46-2.24s1.83-1.77-.21-2.6c1.45-.21,2.06-1.15,1.81-1.82S52.48,37.2,53,36.09,56.45,35,56.46,33.27Z"/>
        </g>
        <text class="cls-9" transform="translate(63.2 57.31)">Klona<tspan class="cls-10" x="195.61" y="0">.</tspan><tspan x="215.72" y="0">Ai</tspan></text>
      </g>
    </g>
  </g>
</svg>
